<svg width="250" height="212" viewBox="0 0 250 212" fill="none" xmlns="http://www.w3.org/2000/svg">
<rect width="13" height="211" transform="matrix(-1 0 0 1 147 0)" fill="#6D6D6D"/>
<path d="M140.392 172.579V211.263H195L140.392 172.579Z" fill="#6D6D6D"/>
<rect x="103" width="13" height="211" fill="#6D6D6D"/>
<path d="M109.608 172.579V211.263H55L109.608 172.579Z" fill="#6D6D6D"/>
<rect x="75.0853" width="13.6519" height="160.263" fill="#6D6D6D"/>
<path d="M81.9113 121.579V160.263H27.3038L81.9113 121.579Z" fill="#6D6D6D"/>
<path d="M54.6075 74.6053V113.289H0L54.6075 74.6053Z" fill="#6D6D6D"/>
<rect x="48.6348" width="13.6519" height="113.289" fill="#6D6D6D"/>
<path d="M168.089 121.579V160.263H222.696L168.089 121.579Z" fill="#6D6D6D"/>
<rect width="13.6519" height="160.263" transform="matrix(-1 0 0 1 174.915 0)" fill="#6D6D6D"/>
<path d="M195.392 74.6053V113.289H250L195.392 74.6053Z" fill="#6D6D6D"/>
<rect width="13.6519" height="113.289" transform="matrix(-1 0 0 1 201.365 0)" fill="#6D6D6D"/>
</svg>
