<svg width="299" height="257" viewBox="0 0 299 257" fill="none" xmlns="http://www.w3.org/2000/svg">
<path d="M236.439 145.896C240.141 145.917 242.37 150.073 240.501 153.468L209.89 209.068C207.977 212.543 203.227 212.615 201.394 209.197L171.373 153.242C169.539 149.824 172.018 145.519 175.807 145.541L236.439 145.896Z" fill="url(#paint0_linear_25_178)"/>
<path d="M136.609 71.2383C140.311 71.26 142.54 75.4151 140.671 78.81L110.06 134.411C108.147 137.885 103.397 137.957 101.564 134.539L71.5432 78.5841C69.7094 75.1662 72.1879 70.8616 75.977 70.8838L136.609 71.2383Z" fill="url(#paint1_linear_25_178)"/>
<path d="M130.029 117.553C133.683 117.616 135.876 121.704 134.065 125.076L116.167 158.396C114.278 161.913 109.49 162.013 107.645 158.573L89.4346 124.632C87.5893 121.192 90.1102 116.866 93.9214 116.932L130.029 117.553Z" fill="url(#paint2_linear_25_178)"/>
<ellipse cx="105.607" cy="109.077" rx="84.4325" ry="31.877" transform="rotate(30.8732 105.607 109.077)" fill="url(#paint3_linear_25_178)"/>
<ellipse cx="52.3435" cy="83.4233" rx="4.44382" ry="5.31284" transform="rotate(30.8732 52.3435 83.4233)" fill="#CCD0F8"/>
<defs>
<linearGradient id="paint0_linear_25_178" x1="259.828" y1="168.952" x2="195.952" y2="244.156" gradientUnits="userSpaceOnUse">
<stop offset="0.129808" stop-color="#1500FF"/>
<stop offset="1" stop-color="#CCD0F8"/>
</linearGradient>
<linearGradient id="paint1_linear_25_178" x1="159.998" y1="94.2947" x2="96.122" y2="169.498" gradientUnits="userSpaceOnUse">
<stop offset="0.129808" stop-color="#1500FF"/>
<stop offset="1" stop-color="#CCD0F8"/>
</linearGradient>
<linearGradient id="paint2_linear_25_178" x1="148.544" y1="133.697" x2="104.695" y2="184.447" gradientUnits="userSpaceOnUse">
<stop offset="0.129808" stop-color="#1500FF"/>
<stop offset="1" stop-color="#CCD0F8"/>
</linearGradient>
<linearGradient id="paint3_linear_25_178" x1="155.353" y1="75.4406" x2="166.069" y2="146.864" gradientUnits="userSpaceOnUse">
<stop offset="0.129808" stop-color="#1500FF"/>
<stop offset="1" stop-color="#CCD0F8"/>
</linearGradient>
</defs>
</svg>
