<svg width="162" height="221" viewBox="0 0 162 221" fill="none" xmlns="http://www.w3.org/2000/svg">
<path d="M33.5202 62.3367C14.8558 54.2781 -11.7903 33.186 30.9407 13.2867" stroke="#6D6D6D" stroke-width="21" stroke-linecap="round"/>
<path d="M37.1312 110.769C18.4668 102.711 -8.17931 81.6187 34.5517 61.7194" stroke="#6D6D6D" stroke-width="21" stroke-linecap="round"/>
<path d="M35.4899 158.663C16.8255 166.722 -9.82063 187.814 32.9104 207.713" stroke="#6D6D6D" stroke-width="21" stroke-linecap="round"/>
<path d="M39.1008 110.231C20.4364 118.289 -6.20966 139.381 36.5213 159.281" stroke="#6D6D6D" stroke-width="21" stroke-linecap="round"/>
<path d="M128.193 62.3368C146.857 54.2781 173.503 33.1861 130.772 13.2868" stroke="#6D6D6D" stroke-width="21" stroke-linecap="round"/>
<path d="M124.582 110.769C143.246 102.711 169.893 81.6188 127.162 61.7194" stroke="#6D6D6D" stroke-width="21" stroke-linecap="round"/>
<path d="M126.223 158.663C144.888 166.722 171.534 187.814 128.803 207.713" stroke="#6D6D6D" stroke-width="21" stroke-linecap="round"/>
<path d="M122.612 110.231C141.277 118.289 167.923 139.381 125.192 159.281" stroke="#6D6D6D" stroke-width="21" stroke-linecap="round"/>
<path d="M37.1553 221H124C130.627 221 136 215.627 136 209C136 202.373 130.627 197 124 197H37.1553C29.7435 197 24.1039 203.653 25.3171 210.964C26.2779 216.754 31.286 221 37.1553 221Z" fill="#6D6D6D"/>
</svg>
