<svg width="210" height="216" viewBox="0 0 210 216" fill="none" xmlns="http://www.w3.org/2000/svg">
<mask id="path-1-inside-1_18_81" fill="white">
<path d="M136.335 71H194.607V145H136.335V71Z"/>
</mask>
<path d="M136.335 71H194.607V145H136.335V71Z" fill="#1500FF"/>
<path d="M136.335 71V77H194.607V71V65H136.335V71ZM194.607 145V139H136.335V145V151H194.607V145Z" fill="#6D6D6D" mask="url(#path-1-inside-1_18_81)"/>
<rect x="121.442" y="0.5" width="14.3927" height="215" fill="#6D6D6D" stroke="#6D6D6D"/>
<rect x="195.107" y="0.5" width="14.3927" height="215" fill="#6D6D6D" stroke="#6D6D6D"/>
<mask id="path-5-inside-2_18_81" fill="white">
<path d="M15.3927 71H73.665V145H15.3927V71Z"/>
</mask>
<path d="M15.3927 71H73.665V145H15.3927V71Z" fill="#1500FF"/>
<path d="M15.3927 71V77H73.665V71V65H15.3927V71ZM73.665 145V139H15.3927V145V151H73.665V145Z" fill="#6D6D6D" mask="url(#path-5-inside-2_18_81)"/>
<rect x="0.5" y="0.5" width="14.3927" height="215" fill="#6D6D6D" stroke="#6D6D6D"/>
<rect x="74.1649" y="0.5" width="14.3927" height="215" fill="#6D6D6D" stroke="#6D6D6D"/>
<path d="M62.6702 130L24.7382 89" stroke="#D9D9D9" stroke-width="7"/>
<path d="M24.7383 130L62.6702 89" stroke="#D9D9D9" stroke-width="7"/>
<path d="M185.262 130L147.33 89" stroke="#D9D9D9" stroke-width="7"/>
<path d="M147.33 130L185.262 89" stroke="#D9D9D9" stroke-width="7"/>
</svg>
