<svg width="235" height="216" viewBox="0 0 235 216" fill="none" xmlns="http://www.w3.org/2000/svg">
<mask id="path-1-inside-1_25_109" fill="white">
<path d="M36 12C36 5.37259 41.3726 0 48 0H186C192.627 0 198 5.37258 198 12V204C198 210.627 192.627 216 186 216H48C41.3726 216 36 210.627 36 204V12Z"/>
</mask>
<path d="M36 12C36 5.37259 41.3726 0 48 0H186C192.627 0 198 5.37258 198 12V204C198 210.627 192.627 216 186 216H48C41.3726 216 36 210.627 36 204V12Z" fill="#A0A0A0"/>
<path d="M36 0H198H36ZM198 216H36H198ZM48 216C35.8497 216 26 206.15 26 194V22C26 9.84974 35.8497 0 48 0C46.8954 0 46 5.37258 46 12V204C46 210.627 46.8954 216 48 216ZM186 0C198.15 0 208 9.84974 208 22V194C208 206.15 198.15 216 186 216C187.105 216 188 210.627 188 204V12C188 5.37258 187.105 0 186 0Z" fill="#6D6D6D" mask="url(#path-1-inside-1_25_109)"/>
<path d="M46.1758 179.676L0.204159 197.508L46.1758 216V179.676Z" fill="#1500FF"/>
<path d="M45.9717 0L5.71944e-05 17.8319L45.9717 36.3243V0Z" fill="#1500FF"/>
<path d="M46.1758 94.0541L0.204159 111.886L46.1758 130.378V94.0541Z" fill="#1500FF"/>
<path d="M188 179.676L233.972 197.508L188 216V179.676Z" fill="#1500FF"/>
<path d="M188.204 0L234.176 17.8319L188.204 36.3243V0Z" fill="#1500FF"/>
<path d="M188 94.0541L233.972 111.886L188 130.378V94.0541Z" fill="#1500FF"/>
</svg>
