<svg width="171" height="216" viewBox="0 0 171 216" fill="none" xmlns="http://www.w3.org/2000/svg">
<path d="M14 0H158V216H14V0Z" fill="url(#paint0_linear_103_73)"/>
<path d="M0 118H171V206C171 211.523 166.523 216 161 216H10C4.47716 216 0 211.523 0 206V118Z" fill="#1500FF"/>
<path d="M28.2017 182V152.909H40.2188C42.3968 152.909 44.2765 153.335 45.858 154.188C47.4489 155.03 48.6752 156.209 49.5369 157.724C50.3987 159.23 50.8295 160.982 50.8295 162.98C50.8295 164.988 50.3892 166.744 49.5085 168.25C48.6373 169.746 47.392 170.906 45.7727 171.73C44.1534 172.554 42.2311 172.966 40.0057 172.966H32.5909V167.426H38.6989C39.7595 167.426 40.6449 167.241 41.3551 166.872C42.0748 166.503 42.6193 165.987 42.9886 165.324C43.358 164.652 43.5426 163.87 43.5426 162.98C43.5426 162.08 43.358 161.304 42.9886 160.651C42.6193 159.988 42.0748 159.476 41.3551 159.116C40.6354 158.757 39.75 158.577 38.6989 158.577H35.233V182H28.2017ZM71.8949 152.909H78.9119V171.673C78.9119 173.842 78.3958 175.731 77.3636 177.341C76.3314 178.941 74.892 180.182 73.0455 181.062C71.1989 181.934 69.054 182.369 66.6108 182.369C64.1392 182.369 61.9801 181.934 60.1335 181.062C58.2869 180.182 56.8523 178.941 55.8295 177.341C54.8068 175.731 54.2955 173.842 54.2955 171.673V152.909H61.3267V171.062C61.3267 172.066 61.5445 172.961 61.9801 173.747C62.4252 174.533 63.0455 175.149 63.8409 175.594C64.6364 176.039 65.5597 176.261 66.6108 176.261C67.6619 176.261 68.5805 176.039 69.3665 175.594C70.1619 175.149 70.7822 174.533 71.2273 173.747C71.6723 172.961 71.8949 172.066 71.8949 171.062V152.909ZM83.3189 152.909H92.0263L99.4126 170.92H99.7536L107.14 152.909H115.847V182H109.001V164.131H108.759L101.771 181.815H97.3956L90.407 164.031H90.1655V182H83.3189V152.909ZM120.233 182V152.909H132.25C134.428 152.909 136.308 153.335 137.889 154.188C139.48 155.03 140.706 156.209 141.568 157.724C142.43 159.23 142.861 160.982 142.861 162.98C142.861 164.988 142.42 166.744 141.54 168.25C140.669 169.746 139.423 170.906 137.804 171.73C136.185 172.554 134.262 172.966 132.037 172.966H124.622V167.426H130.73C131.791 167.426 132.676 167.241 133.386 166.872C134.106 166.503 134.651 165.987 135.02 165.324C135.389 164.652 135.574 163.87 135.574 162.98C135.574 162.08 135.389 161.304 135.02 160.651C134.651 159.988 134.106 159.476 133.386 159.116C132.667 158.757 131.781 158.577 130.73 158.577H127.264V182H120.233Z" fill="#A0A0A0"/>
<defs>
<linearGradient id="paint0_linear_103_73" x1="14" y1="85.5" x2="158" y2="85.5" gradientUnits="userSpaceOnUse">
<stop stop-color="#A0A0A0"/>
<stop offset="0.495192" stop-color="#E2E2E2"/>
<stop offset="1" stop-color="#A0A0A0"/>
</linearGradient>
</defs>
</svg>
